<svg width="143" height="33" viewBox="0 0 143 33" fill="none" xmlns="http://www.w3.org/2000/svg">
<g filter="url(#filter0_d_411_107)">
<path d="M10.14 5.73978L14.2464 18.6097H14.4029L18.5092 5.73978H24.6493L18.0399 23.993H10.6093L4 5.73978H10.14Z" fill="#312A4E"/>
<path d="M26.5778 23.993V5.73978H41.0088V9.73267H32.0139V12.8699H40.2658V16.8628H32.0139V20.0001H40.9697V23.993H26.5778ZM30.7624 4.13549C30.0976 4.13549 29.5338 3.93347 29.071 3.52943C28.6082 3.12539 28.3768 2.63816 28.3768 2.06775C28.3768 1.49733 28.6082 1.01011 29.071 0.606064C29.5338 0.202021 30.0976 0 30.7624 0C31.4077 0 31.9585 0.202021 32.4148 0.606064C32.8775 1.01011 33.1089 1.49733 33.1089 2.06775C33.1089 2.63816 32.8775 3.12539 32.4148 3.52943C31.9585 3.93347 31.4077 4.13549 30.7624 4.13549ZM36.9807 4.13549C36.3158 4.13549 35.752 3.93347 35.2892 3.52943C34.8264 3.12539 34.595 2.63816 34.595 2.06775C34.595 1.49733 34.8264 1.01011 35.2892 0.606064C35.752 0.202021 36.3158 0 36.9807 0C37.626 0 38.1767 0.202021 38.633 0.606064C39.0958 1.01011 39.3272 1.49733 39.3272 2.06775C39.3272 2.63816 39.0958 3.12539 38.633 3.52943C38.1767 3.93347 37.626 4.13549 36.9807 4.13549Z" fill="#312A4E"/>
<path d="M43.7049 23.993V5.73978H52.3479C53.834 5.73978 55.1343 5.98636 56.2489 6.47953C57.3635 6.9727 58.2304 7.68275 58.8496 8.60967C59.4688 9.53659 59.7785 10.6477 59.7785 11.943C59.7785 13.2502 59.4591 14.3524 58.8203 15.2496C58.188 16.1468 57.2983 16.8242 56.1511 17.2817C55.0105 17.7392 53.6775 17.968 52.1523 17.968H46.99V14.1177H51.0573C51.696 14.1177 52.2403 14.0464 52.69 13.9038C53.1463 13.7553 53.495 13.5206 53.7362 13.1997C53.9839 12.8789 54.1077 12.46 54.1077 11.943C54.1077 11.4201 53.9839 10.9953 53.7362 10.6685C53.495 10.3358 53.1463 10.0921 52.69 9.93766C52.2403 9.77723 51.696 9.69702 51.0573 9.69702H49.141V23.993H43.7049ZM55.4374 15.6151L60.4433 23.993H54.5379L49.6494 15.6151H55.4374Z" fill="#312A4E"/>
<path d="M72.8896 11.4439C72.8374 10.8497 72.593 10.3863 72.1563 10.0535C71.7261 9.72079 71.071 9.55441 70.1911 9.55441C69.6305 9.55441 69.171 9.6168 68.8125 9.74158C68.4605 9.86042 68.1998 10.0238 68.0303 10.2318C67.8609 10.4397 67.7729 10.6774 67.7664 10.9448C67.7533 11.1646 67.7957 11.3637 67.8935 11.5419C67.9978 11.7143 68.1607 11.8717 68.3823 12.0143C68.6039 12.151 68.8875 12.2758 69.2329 12.3887C69.5784 12.5015 69.989 12.6026 70.4648 12.6917L72.1074 13.0125C73.2155 13.2264 74.1639 13.5087 74.9525 13.8593C75.7412 14.2098 76.3865 14.6228 76.8884 15.0981C77.3903 15.5675 77.7586 16.0963 77.9932 16.6846C78.2344 17.2728 78.3582 17.9145 78.3648 18.6097C78.3582 19.81 78.0291 20.826 77.3773 21.6579C76.7255 22.4897 75.7934 23.1225 74.581 23.5563C73.3752 23.99 71.9249 24.2069 70.2302 24.2069C68.4899 24.2069 66.9712 23.9722 65.6741 23.5028C64.3835 23.0334 63.3797 22.3115 62.6627 21.337C61.9522 20.3566 61.5937 19.1029 61.5872 17.5758H66.7495C66.7821 18.1344 66.9353 18.6038 67.2091 18.9841C67.4828 19.3643 67.8674 19.6525 68.3628 19.8486C68.8647 20.0447 69.4611 20.1427 70.152 20.1427C70.7321 20.1427 71.2177 20.0773 71.6088 19.9466C71.9999 19.8159 72.2964 19.6347 72.4985 19.403C72.7006 19.1712 72.8048 18.9068 72.8114 18.6097C72.8048 18.3305 72.7038 18.0868 72.5083 17.8789C72.3192 17.665 72.0064 17.4748 71.5697 17.3085C71.1329 17.1362 70.5431 16.9757 69.8 16.8272L67.8055 16.435C66.0326 16.0845 64.6344 15.4992 63.6111 14.6792C62.5943 13.8533 62.0891 12.7273 62.0956 11.3013C62.0891 10.1427 62.4281 9.12958 63.1125 8.26207C63.8034 7.38863 64.7583 6.70829 65.9771 6.22107C67.2025 5.73384 68.6072 5.49022 70.1911 5.49022C71.8076 5.49022 73.2057 5.73681 74.3855 6.22998C75.5652 6.72315 76.4745 7.41834 77.1133 8.31555C77.7586 9.20682 78.0845 10.2496 78.091 11.4439H72.8896Z" fill="#312A4E"/>
<path d="M79.8851 9.73267V5.73978H97.2884V9.73267H91.2657V23.993H85.9078V9.73267H79.8851Z" fill="#312A4E"/>
<path d="M99.3342 23.993V5.73978H104.77V13.1195H105.044L111.067 5.73978H117.402L110.637 13.8682L117.559 23.993H111.067L106.569 17.148L104.77 19.2871V23.993H99.3342Z" fill="#312A4E"/>
<path d="M124.217 23.993H118.351L124.96 5.73978H132.391L139 23.993H133.134L128.754 10.7665H128.597L124.217 23.993ZM123.122 16.7915H134.151V20.4992H123.122V16.7915Z" fill="#312A4E"/>
</g>
<defs>
<filter id="filter0_d_411_107" x="0" y="0" width="143" height="32.2069" filterUnits="userSpaceOnUse" color-interpolation-filters="sRGB">
<feFlood flood-opacity="0" result="BackgroundImageFix"/>
<feColorMatrix in="SourceAlpha" type="matrix" values="0 0 0 0 0 0 0 0 0 0 0 0 0 0 0 0 0 0 127 0" result="hardAlpha"/>
<feOffset dy="4"/>
<feGaussianBlur stdDeviation="2"/>
<feComposite in2="hardAlpha" operator="out"/>
<feColorMatrix type="matrix" values="0 0 0 0 0 0 0 0 0 0 0 0 0 0 0 0 0 0 0.25 0"/>
<feBlend mode="normal" in2="BackgroundImageFix" result="effect1_dropShadow_411_107"/>
<feBlend mode="normal" in="SourceGraphic" in2="effect1_dropShadow_411_107" result="shape"/>
</filter>
</defs>
</svg>
